<svg width="52" height="71" viewBox="0 0 52 71" fill="none" xmlns="http://www.w3.org/2000/svg">
<path d="M27.0833 4.4375C23.2483 4.4375 19.8683 7.89875 18.785 12.9279C17.6367 12.2179 16.4233 11.8333 15.1667 11.8333C12.8681 11.8333 10.6637 13.0801 9.03841 15.2992C7.41309 17.5184 6.5 20.5283 6.5 23.6667C6.50513 26.2873 7.14565 28.8318 8.32156 30.903C9.49746 32.9741 11.1426 34.4554 13 35.1154V56.2083H41.1667V35.1154C44.98 33.7546 47.6667 29.0508 47.6667 23.6667C47.6667 20.5283 46.7536 17.5184 45.1283 15.2992C43.5029 13.0801 41.2985 11.8333 39 11.8333C37.7433 11.8333 36.53 12.2179 35.3817 12.9279C34.2983 7.89875 30.9183 4.4375 27.0833 4.4375ZM26 31.0625H28.1667V51.7708H26V31.0625ZM19.5 36.9792H21.6667V51.7708H19.5V36.9792ZM32.5 36.9792H34.6667V51.7708H32.5V36.9792ZM13 59.1667V62.125C13 62.9096 13.2283 63.6621 13.6346 64.2169C14.0409 64.7717 14.592 65.0833 15.1667 65.0833H39C39.5746 65.0833 40.1257 64.7717 40.5321 64.2169C40.9384 63.6621 41.1667 62.9096 41.1667 62.125V59.1667H13Z" fill="black"/>
</svg>
